# xmcd
#
# Track frame offsets:
#	150
#	11959
#	24932
#	39387
#	52810
#	67242
#	78177
#	88665
#	101612
#	112062
#	123677
#	136062
#	148997
#	162440
#	171380
#	183607
#	196877
#	208272
#	223232
#	235680
#
# Disc length: 3329 seconds
#
# Revision: 2
# Processed by: cddbd v1.5.2PL0 Copyright (c) Steve Scherf et al.
# Submitted via: EZCDAudioConverter 8.0.2.1
#
DISCID=2c0cff14
DTITLE=SOLEVANTE and SOLENY - RAIZES SERTANEJAS [CD 497261-2) EMI COPACABANA
DYEAR=1998
DGENRE=SERTANEJO
TTITLE0=TIMBÓ COM FUMO (BY GILMAR SINISTRO)
TTITLE1=APARTAMENTO TRANCADO (BY GILMAR SINISTRO)
TTITLE2=ARAPUCA (BY GILMAR SINISTRO)
TTITLE3=CRETINA (BY GILMAR SINISTRO)
TTITLE4=O FUMO (BY GILMAR SINISTRO)
TTITLE5=NÃO MEXA COM A MINHA NEGA (BY GILMAR SINISTRO)
TTITLE6=QUEM AMA SENTE SAUDADE (BY GILMAR SINISTRO)
TTITLE7=O BODOQUE (BY GILMAR SINISTRO)
TTITLE8=AMOR DE MINHA VIDA (BY GILMAR SINISTRO)
TTITLE9=CORTINA VERMELHA (BY GILMAR SINISTRO)
TTITLE10=NOITE TRISTE (BY GILMAR SINISTRO)
TTITLE11=MINEIRO VALENTE (BY GILMAR SINISTRO)
TTITLE12=NÃO POSSO CASAR CONTIGO (BY GILMAR SINISTRO)
TTITLE13=DOR DE COTOVELO (BY GILMAR SINISTRO)
TTITLE14=O BEBUM (BY GILMAR SINISTRO)
TTITLE15=MALDITO BILHETE (BY GILMAR SINISTRO)
TTITLE16=AMIGA (BY GILMAR SINISTRO)
TTITLE17=CORACÃO QUE DÓI E DÓI (BY GILMAR SINISTRO)
TTITLE18=DISTÃNCIA DANADA (BY GILMAR SINISTRO)
TTITLE19=NÃO ADIANTA (BY GILMAR SINISTRO)
EXTD=
EXTT0=
EXTT1=
EXTT2=
EXTT3=
EXTT4=
EXTT5=
EXTT6=
EXTT7=
EXTT8=
EXTT9=
EXTT10=
EXTT11=
EXTT12=
EXTT13=
EXTT14=
EXTT15=
EXTT16=
EXTT17=
EXTT18=
EXTT19=
PLAYORDER=
